<svg width="40" height="40" viewBox="0 0 40 40" fill="none" xmlns="http://www.w3.org/2000/svg">
<path d="M12.5 19.9999C12.5 17.5277 13.2331 15.1109 14.6066 13.0553C15.9801 10.9997 17.9324 9.39755 20.2164 8.45145C22.5005 7.50536 25.0139 7.25781 27.4386 7.74013C29.8634 8.22244 32.0907 9.41295 33.8388 11.1611C35.587 12.9093 36.7775 15.1366 37.2598 17.5613C37.7421 19.9861 37.4946 22.4994 36.5485 24.7835C35.6024 27.0676 34.0002 29.0198 31.9446 30.3933C29.889 31.7668 27.4723 32.4999 25 32.4999H11.25C10.0091 32.4987 8.78268 32.2336 7.6521 31.7222C6.52152 31.2107 5.51265 30.4647 4.69246 29.5335C3.87226 28.6023 3.2595 27.5074 2.89485 26.3213C2.53019 25.1352 2.42198 23.8851 2.5774 22.654C2.73282 21.4229 3.14832 20.2389 3.79631 19.1807C4.4443 18.1224 5.30996 17.2141 6.33584 16.516C7.36172 15.8179 8.52435 15.346 9.74657 15.1316C10.9688 14.9171 12.2226 14.9651 13.4249 15.2724" stroke="black" stroke-width="2" stroke-linecap="round" stroke-linejoin="round"/>
</svg>
