<svg width="24" height="24" viewBox="0 0 24 24" fill="none" xmlns="http://www.w3.org/2000/svg">
<path d="M3 7L3.41331 7.18369C6.00093 8.33375 8.96727 8.26637 11.5 7V7L12.7829 6.35857C14.4933 5.50333 16.5067 5.50333 18.2171 6.35857V6.35857C19.0608 6.78039 19.9911 7 20.9343 7H21.5" stroke="black" stroke-width="2" stroke-linecap="round" stroke-linejoin="round"/>
<path d="M3 12L3.41331 12.1837C6.00093 13.3337 8.96727 13.2664 11.5 12V12L12.7829 11.3586C14.4933 10.5033 16.5067 10.5033 18.2171 11.3586V11.3586C19.0608 11.7804 19.9911 12 20.9343 12H21.5" stroke="black" stroke-width="2" stroke-linecap="round" stroke-linejoin="round"/>
<path d="M3 17L3.41331 17.1837C6.00093 18.3337 8.96727 18.2664 11.5 17V17L12.7829 16.3586C14.4933 15.5033 16.5067 15.5033 18.2171 16.3586V16.3586C19.0608 16.7804 19.9911 17 20.9343 17H21.5" stroke="black" stroke-width="2" stroke-linecap="round" stroke-linejoin="round"/>
</svg>
