<svg width="24" height="24" viewBox="0 0 24 24" fill="none" xmlns="http://www.w3.org/2000/svg">
<path d="M7.50002 12C7.50002 10.5166 7.93989 9.06656 8.764 7.83319C9.58811 6.59983 10.7594 5.63853 12.1299 5.07088C13.5003 4.50322 15.0083 4.35469 16.4632 4.64408C17.9181 4.93347 19.2544 5.64778 20.3033 6.69667C21.3522 7.74556 22.0665 9.08194 22.3559 10.5368C22.6453 11.9916 22.4968 13.4996 21.9291 14.8701C21.3615 16.2405 20.4002 17.4119 19.1668 18.236C17.9334 19.0601 16.4834 19.5 15 19.5H6.75002C6.00549 19.4992 5.26963 19.3402 4.59129 19.0333C3.91294 18.7264 3.30762 18.2788 2.8155 17.7201C2.32338 17.1614 1.95573 16.5044 1.73694 15.7928C1.51814 15.0811 1.45322 14.3311 1.54647 13.5924C1.63972 12.8537 1.88902 12.1434 2.27781 11.5084C2.66661 10.8735 3.186 10.3285 3.80153 9.90961C4.41706 9.49074 5.11464 9.20759 5.84797 9.07894C6.5813 8.95029 7.3336 8.97909 8.05495 9.16343" stroke="white" stroke-width="2" stroke-linecap="round" stroke-linejoin="round"/>
</svg>
