<svg width="24" height="24" viewBox="0 0 24 24" fill="none" xmlns="http://www.w3.org/2000/svg">
<path d="M12.75 19.5H6.75002C6.00549 19.4993 5.26963 19.3402 4.59129 19.0333C3.91294 18.7265 3.30762 18.2788 2.8155 17.7201C2.32338 17.1614 1.95573 16.5045 1.73694 15.7928C1.51814 15.0812 1.45322 14.3311 1.54647 13.5924C1.63972 12.8538 1.88902 12.1434 2.27781 11.5084C2.66661 10.8735 3.186 10.3285 3.80153 9.90963C4.41706 9.49077 5.11464 9.20762 5.84797 9.07897C6.5813 8.95032 7.3336 8.97912 8.05495 9.16345" stroke="white" stroke-width="2" stroke-linecap="round" stroke-linejoin="round"/>
<path d="M7.5 12.0001C7.50009 10.7217 7.82696 9.46451 8.44956 8.34797C9.07217 7.23143 9.96984 6.29257 11.0573 5.62053C12.1448 4.94849 13.3861 4.56559 14.6632 4.50818C15.9403 4.45077 17.2109 4.72075 18.3543 5.2925C19.4977 5.86425 20.476 6.71878 21.1963 7.77495C21.9165 8.83112 22.3549 10.0539 22.4697 11.3271C22.5845 12.6003 22.3719 13.8818 21.8522 15.0498C21.3325 16.2177 20.5228 17.2335 19.5001 18.0005" stroke="white" stroke-width="2" stroke-linecap="round" stroke-linejoin="round"/>
<path d="M15 12.75L13.5 16.5" stroke="white" stroke-width="2" stroke-linecap="round" stroke-linejoin="round"/>
<path d="M17.25 15.75L15.75 19.5" stroke="white" stroke-width="2" stroke-linecap="round" stroke-linejoin="round"/>
</svg>
