<svg width="24" height="24" viewBox="0 0 24 24" fill="none" xmlns="http://www.w3.org/2000/svg">
<path d="M10 7L10.35 5.96317C10.7328 4.89077 11.4121 3.94905 12.3089 3.24748C13.2057 2.54592 14.2833 2.11332 15.4163 2C15.022 2.92104 14.9126 3.93912 15.1023 4.92289C15.292 5.90666 15.772 6.81105 16.4805 7.51945C17.189 8.22785 18.0935 8.70776 19.0772 8.89732C20.061 9.08687 21.079 8.97738 22 8.58295C21.8868 9.71596 21.4544 10.7936 20.7529 11.6905L20 12.5" stroke="#A8A8A8" stroke-width="2" stroke-linecap="round" stroke-linejoin="round"/>
<path d="M16.5051 15C16.5051 13.5166 16.0652 12.0666 15.2411 10.8332C14.417 9.59983 13.2457 8.63853 11.8752 8.07088C10.5048 7.50322 8.99679 7.35469 7.54193 7.64408C6.08707 7.93347 4.7507 8.64778 3.7018 9.69667C2.65291 10.7456 1.9386 12.0819 1.64921 13.5368C1.35983 14.9916 1.50835 16.4996 2.07601 17.8701C2.64367 19.2405 3.60496 20.4119 4.83833 21.236C6.0717 22.0601 7.52175 22.5 9.00511 22.5H17.2551C17.9996 22.4992 18.7355 22.3402 19.4138 22.0333C20.0922 21.7264 20.6975 21.2788 21.1896 20.7201C21.6817 20.1614 22.0494 19.5044 22.2682 18.7928C22.487 18.0811 22.5519 17.3311 22.4587 16.5924C22.3654 15.8537 22.1161 15.1434 21.7273 14.5084C21.3385 13.8735 20.8191 13.3285 20.2036 12.9096C19.5881 12.4907 18.8905 12.2076 18.1572 12.0789C17.4238 11.9503 16.6715 11.9791 15.9502 12.1634" stroke="white" stroke-width="2" stroke-linecap="round" stroke-linejoin="round"/>
</svg>
