<svg width="40" height="40" viewBox="0 0 40 40" fill="none" xmlns="http://www.w3.org/2000/svg">
<path d="M21.25 32.5H11.25C10.0092 32.4988 8.78272 32.2337 7.65214 31.7223C6.52156 31.2108 5.5127 30.4648 4.6925 29.5336C3.87231 28.6024 3.25955 27.5075 2.89489 26.3214C2.53024 25.1353 2.42203 23.8852 2.57745 22.6541C2.73287 21.423 3.14836 20.239 3.79635 19.1808C4.44434 18.1225 5.31001 17.2142 6.33589 16.5161C7.36177 15.818 8.5244 15.3461 9.74661 15.1316C10.9688 14.9172 12.2227 14.9652 13.4249 15.2725" stroke="black" stroke-width="2" stroke-linecap="round" stroke-linejoin="round"/>
<path d="M12.5 20C12.5002 17.8694 13.0449 15.7741 14.0826 13.9132C15.1203 12.0523 16.6164 10.4875 18.4289 9.36746C20.2414 8.2474 22.3101 7.60923 24.4386 7.51354C26.5671 7.41786 28.6848 7.86783 30.5905 8.82075C32.4962 9.77366 34.1267 11.1979 35.3271 12.9582C36.5276 14.7184 37.2582 16.7564 37.4495 18.8784C37.6408 21.0005 37.2866 23.1362 36.4203 25.0828C35.5541 27.0295 34.2047 28.7224 32.5002 30.0008" stroke="black" stroke-width="2" stroke-linecap="round" stroke-linejoin="round"/>
<path d="M28.75 26.25L26.25 32.5" stroke="#87CBFD" stroke-width="2" stroke-linecap="round" stroke-linejoin="round"/>
</svg>
