<svg width="40" height="40" viewBox="0 0 40 40" fill="none" xmlns="http://www.w3.org/2000/svg">
<path d="M10.2328 14.1666C10.2328 12.024 10.8614 9.9295 12.039 8.14797C13.2166 6.36644 14.8903 4.97791 16.8486 4.15796C18.8068 3.33801 20.9616 3.12347 23.0405 3.54148C25.1194 3.95948 27.0289 4.99126 28.5277 6.50633M1.72571 16.4668C1.85896 15.3999 2.21518 14.3738 2.77074 13.4566C3.32629 12.5395 4.06847 11.7523 4.94801 11.1472C5.82755 10.5422 6.82433 10.1332 7.8722 9.94739C8.92006 9.76156 9.99505 9.80316 11.0258 10.0694" stroke="#A8A8A8" stroke-width="2" stroke-linecap="round" stroke-linejoin="round"/>
<path d="M12.5 24.9999C12.5 22.5277 13.2331 20.1109 14.6067 18.0553C15.9802 15.9997 17.9324 14.3975 20.2165 13.4515C22.5006 12.5054 25.0139 12.2578 27.4387 12.7401C29.8634 13.2224 32.0907 14.413 33.8389 16.1611C35.587 17.9093 36.7775 20.1366 37.2599 22.5613C37.7422 24.9861 37.4946 27.4994 36.5485 29.7835C35.6024 32.0676 34.0003 34.0198 31.9447 35.3933C29.889 36.7668 27.4723 37.4999 25 37.4999H11.25C10.0092 37.4987 8.78272 37.2336 7.65214 36.7222C6.52156 36.2107 5.5127 35.4647 4.6925 34.5335C3.87231 33.6023 3.25955 32.5074 2.89489 31.3213C2.53024 30.1352 2.42203 28.8851 2.57745 27.654C2.73287 26.4229 3.14836 25.2389 3.79635 24.1807C4.44434 23.1224 5.31001 22.2141 6.33589 21.516C7.36177 20.8179 8.5244 20.346 9.74661 20.1316C10.9688 19.9171 12.2227 19.9651 13.4249 20.2724" stroke="white" stroke-width="2" stroke-linecap="round" stroke-linejoin="round"/>
</svg>
