<svg width="40" height="40" viewBox="0 0 40 40" fill="none" xmlns="http://www.w3.org/2000/svg">
<path d="M12.5 19.9999C12.5 17.5277 13.2331 15.1109 14.6067 13.0553C15.9802 10.9997 17.9324 9.39755 20.2165 8.45145C22.5006 7.50536 25.0139 7.25781 27.4387 7.74013C29.8634 8.22244 32.0907 9.41295 33.8389 11.1611C35.587 12.9093 36.7775 15.1366 37.2599 17.5613C37.7422 19.9861 37.4946 22.4994 36.5485 24.7835C35.6024 27.0676 34.0003 29.0198 31.9447 30.3933C29.889 31.7668 27.4723 32.4999 25 32.4999H11.25C10.0092 32.4987 8.78272 32.2336 7.65214 31.7222C6.52156 31.2107 5.5127 30.4647 4.6925 29.5335C3.87231 28.6023 3.25955 27.5074 2.89489 26.3213C2.53024 25.1352 2.42203 23.8851 2.57745 22.654C2.73287 21.4229 3.14836 20.2389 3.79635 19.1807C4.44434 18.1224 5.31001 17.2141 6.33589 16.516C7.36177 15.8179 8.5244 15.346 9.74661 15.1316C10.9688 14.9171 12.2227 14.9651 13.4249 15.2724" stroke="white" stroke-width="2" stroke-linecap="round" stroke-linejoin="round"/>
</svg>
