<svg width="40" height="40" viewBox="0 0 40 40" fill="none" xmlns="http://www.w3.org/2000/svg">
<path d="M10.2329 14.1666C10.2329 12.024 10.8614 9.9295 12.039 8.14797C13.2166 6.36644 14.8903 4.97791 16.8486 4.15796C18.8068 3.33801 20.9616 3.12347 23.0405 3.54148C25.1194 3.95948 27.029 4.99126 28.5277 6.50633M1.72572 16.4668C1.85897 15.3999 2.2152 14.3738 2.77075 13.4566C3.32631 12.5395 4.06848 11.7523 4.94802 11.1472C5.82756 10.5422 6.82435 10.1332 7.87221 9.94739C8.92008 9.76156 9.99506 9.80316 11.0258 10.0694" stroke="#A8A8A8" stroke-width="2" stroke-linecap="round" stroke-linejoin="round"/>
<path d="M12.5 24.9999C12.5 22.5277 13.2331 20.1109 14.6066 18.0553C15.9801 15.9997 17.9324 14.3975 20.2164 13.4515C22.5005 12.5054 25.0139 12.2578 27.4386 12.7401C29.8634 13.2224 32.0907 14.413 33.8388 16.1611C35.587 17.9093 36.7775 20.1366 37.2598 22.5613C37.7421 24.9861 37.4946 27.4994 36.5485 29.7835C35.6024 32.0676 34.0002 34.0198 31.9446 35.3933C29.889 36.7668 27.4723 37.4999 25 37.4999H11.25C10.0091 37.4987 8.78268 37.2336 7.6521 36.7222C6.52152 36.2107 5.51265 35.4647 4.69246 34.5335C3.87226 33.6023 3.2595 32.5074 2.89485 31.3213C2.53019 30.1352 2.42198 28.8851 2.5774 27.654C2.73282 26.4229 3.14832 25.2389 3.79631 24.1807C4.4443 23.1224 5.30996 22.2141 6.33584 21.516C7.36172 20.8179 8.52435 20.346 9.74657 20.1316C10.9688 19.9171 12.2226 19.9651 13.4249 20.2724" stroke="black" stroke-width="2" stroke-linecap="round" stroke-linejoin="round"/>
</svg>
