<svg width="24" height="24" viewBox="0 0 24 24" fill="none" xmlns="http://www.w3.org/2000/svg">
<path d="M20.9561 12.8943C20.7868 14.5896 20.1397 16.2021 19.0901 17.5442C18.0405 18.8863 16.6314 19.9029 15.0269 20.4759C13.4223 21.0488 11.688 21.1545 10.0257 20.7807C8.36344 20.4069 6.84139 19.5689 5.63654 18.3642C4.4317 17.1596 3.59354 15.6376 3.21953 13.9754C2.84552 12.3131 2.95101 10.5789 3.52374 8.9742C4.09646 7.36954 5.11291 5.96041 6.45488 4.91063C7.79686 3.86085 9.40925 3.21355 11.1046 3.04398L11.1046 3.04405C10.5146 4.42222 10.3509 5.94555 10.6348 7.4176C10.9186 8.88965 11.6369 10.2429 12.6971 11.3029C13.7572 12.3629 15.1106 13.081 16.5827 13.3647C18.0548 13.6483 19.5781 13.4845 20.9562 12.8943L20.9561 12.8943Z" stroke="white" stroke-width="2" stroke-linecap="round" stroke-linejoin="round"/>
</svg>
