<svg width="40" height="40" viewBox="0 0 40 40" fill="none" xmlns="http://www.w3.org/2000/svg">
<path d="M21.25 32.5H11.25C10.0091 32.4988 8.78269 32.2337 7.65211 31.7222C6.52153 31.2108 5.51266 30.4647 4.69247 29.5336C3.87228 28.6024 3.25952 27.5074 2.89486 26.3213C2.53021 25.1353 2.422 23.8852 2.57742 22.6541C2.73284 21.423 3.14833 20.239 3.79632 19.1807C4.44431 18.1225 5.30997 17.2142 6.33585 16.5161C7.36173 15.818 8.52436 15.346 9.74658 15.1316C10.9688 14.9172 12.2226 14.9652 13.4249 15.2724" stroke="black" stroke-width="2" stroke-linecap="round" stroke-linejoin="round"/>
<path d="M12.5 20C12.5002 17.8693 13.0449 15.7741 14.0826 13.9132C15.1203 12.0523 16.6164 10.4875 18.4289 9.36745C20.2414 8.24739 22.3101 7.60922 24.4386 7.51353C26.5671 7.41784 28.6848 7.86782 30.5905 8.82073C32.4962 9.77364 34.1267 11.1979 35.3271 12.9581C36.5276 14.7184 37.2582 16.7564 37.4495 18.8784C37.6408 21.0005 37.2866 23.1362 36.4203 25.0828C35.5541 27.0295 34.2047 28.7224 32.5002 30.0008" stroke="black" stroke-width="2" stroke-linecap="round" stroke-linejoin="round"/>
<path d="M26.25 32.4987L28.75 26.2487H23.75L26.25 19.9987" stroke="#F8CB64" stroke-width="2" stroke-linecap="round" stroke-linejoin="round"/>
</svg>
