<svg width="24" height="24" viewBox="0 0 24 24" fill="none" xmlns="http://www.w3.org/2000/svg">
<path d="M7.5 12C7.5 10.5166 7.93987 9.06656 8.76398 7.83319C9.58809 6.59983 10.7594 5.63853 12.1299 5.07088C13.5003 4.50322 15.0083 4.35469 16.4632 4.64408C17.918 4.93347 19.2544 5.64778 20.3033 6.69667C21.3522 7.74556 22.0665 9.08194 22.3559 10.5368C22.6453 11.9916 22.4968 13.4996 21.9291 14.8701C21.3614 16.2405 20.4002 17.4119 19.1668 18.236C17.9334 19.0601 16.4834 19.5 15 19.5H6.75C6.00548 19.4992 5.26962 19.3402 4.59127 19.0333C3.91292 18.7264 3.3076 18.2788 2.81549 17.7201C2.32337 17.1614 1.95571 16.5044 1.73692 15.7928C1.51813 15.0811 1.4532 14.3311 1.54645 13.5924C1.63971 12.8537 1.889 12.1434 2.2778 11.5084C2.66659 10.8735 3.18599 10.3285 3.80152 9.90961C4.41704 9.49074 5.11462 9.20759 5.84795 9.07894C6.58128 8.95029 7.33359 8.97909 8.05493 9.16343" stroke="black" stroke-width="2" stroke-linecap="round" stroke-linejoin="round"/>
</svg>
