<svg width="24" height="24" viewBox="0 0 24 24" fill="none" xmlns="http://www.w3.org/2000/svg">
<path d="M12.0571 6H13.4529C13.8536 6 14.2444 6.12371 14.5721 6.35422V6.35422C15.8515 7.25425 15.5992 9.21966 14.1339 9.76726L13.9158 9.84874C13.6843 9.93527 13.4391 9.97959 13.1919 9.97959H5.24347C4.55594 9.97959 3.89732 10.2561 3.41588 10.747V10.747C2.58581 11.5932 2.4453 12.8987 3.07627 13.9022L3.27601 14.2199C3.83148 15.1033 4.80186 15.6395 5.84541 15.6395H12.0571H12.8105C14.7396 15.6395 15.148 18.3593 13.304 18.9259V18.9259C13.1442 18.975 12.9778 19 12.8105 19H11.0514" stroke="white" stroke-width="2" stroke-linecap="round" stroke-linejoin="round"/>
<path d="M18.4293 9H19.3077H19.7639C21.2507 9 22.2177 10.5646 21.5528 11.8944V11.8944C21.214 12.572 20.5215 13 19.7639 13H17" stroke="white" stroke-width="2" stroke-linecap="round" stroke-linejoin="round"/>
</svg>
