<svg width="40" height="40" viewBox="0 0 40 40" fill="none" xmlns="http://www.w3.org/2000/svg">
<path d="M5 11.6666L5.68885 11.9728C10.0016 13.8896 14.9454 13.7773 19.1667 11.6666V11.6666L21.3048 10.5976C24.1556 9.1722 27.5111 9.1722 30.3619 10.5976V10.5976C31.768 11.3006 33.3184 11.6666 34.8905 11.6666H35.8333" stroke="black" stroke-width="2" stroke-linecap="round" stroke-linejoin="round"/>
<path d="M5 20L5.68885 20.3062C10.0016 22.2229 14.9454 22.1106 19.1667 20V20L21.3048 18.931C24.1556 17.5056 27.5111 17.5056 30.3619 18.931V18.931C31.768 19.634 33.3184 20 34.8905 20H35.8333" stroke="black" stroke-width="2" stroke-linecap="round" stroke-linejoin="round"/>
<path d="M5 28.3333L5.68885 28.6395C10.0016 30.5562 14.9454 30.4439 19.1667 28.3333V28.3333L21.3048 27.2643C24.1556 25.8389 27.5111 25.8389 30.3619 27.2643V27.2643C31.768 27.9673 33.3184 28.3333 34.8905 28.3333H35.8333" stroke="black" stroke-width="2" stroke-linecap="round" stroke-linejoin="round"/>
</svg>
