<svg width="24" height="24" viewBox="0 0 24 24" fill="none" xmlns="http://www.w3.org/2000/svg">
<path d="M6.13971 8.5C6.13971 7.21442 6.51683 5.95771 7.22339 4.8888C7.92994 3.81988 8.93419 2.98676 10.1091 2.49479C11.2841 2.00282 12.577 1.87409 13.8243 2.1249C15.0716 2.3757 16.2174 2.99477 17.1166 3.90381M1.03543 9.88012C1.11538 9.23994 1.32912 8.62428 1.66245 8.07399C1.99578 7.5237 2.44109 7.05137 2.96881 6.68835C3.49653 6.32534 4.0946 6.07994 4.72332 5.96844C5.35204 5.85695 5.99703 5.88191 6.61548 6.04166" stroke="#A8A8A8" stroke-width="2" stroke-linecap="round" stroke-linejoin="round"/>
<path d="M7.49999 15C7.49999 13.5166 7.93986 12.0666 8.76397 10.8332C9.58808 9.59983 10.7594 8.63853 12.1299 8.07088C13.5003 7.50322 15.0083 7.35469 16.4632 7.64408C17.918 7.93347 19.2544 8.64778 20.3033 9.69667C21.3522 10.7456 22.0665 12.0819 22.3559 13.5368C22.6453 14.9916 22.4967 16.4996 21.9291 17.8701C21.3614 19.2405 20.4001 20.4119 19.1668 21.236C17.9334 22.0601 16.4834 22.5 15 22.5H6.74999C6.00546 22.4992 5.2696 22.3402 4.59126 22.0333C3.91291 21.7264 3.30759 21.2788 2.81547 20.7201C2.32335 20.1614 1.9557 19.5044 1.73691 18.7928C1.51811 18.0811 1.45319 17.3311 1.54644 16.5924C1.63969 15.8537 1.88899 15.1434 2.27778 14.5084C2.66658 13.8735 3.18597 13.3285 3.8015 12.9096C4.41703 12.4907 5.11461 12.2076 5.84794 12.0789C6.58127 11.9503 7.33357 11.9791 8.05492 12.1634" stroke="black" stroke-width="2" stroke-linecap="round" stroke-linejoin="round"/>
</svg>
