<svg width="40" height="40" viewBox="0 0 40 40" fill="none" xmlns="http://www.w3.org/2000/svg">
<path d="M34.9269 21.4905C34.6446 24.3161 33.5661 27.0035 31.8168 29.2404C30.0674 31.4772 27.7191 33.1716 25.0448 34.1265C22.3705 35.0813 19.48 35.2575 16.7096 34.6345C13.9391 34.0115 11.4023 32.6149 9.39424 30.6071C7.38616 28.5993 5.98924 26.0627 5.36589 23.2923C4.74253 20.5219 4.91835 17.6314 5.87289 14.957C6.82744 12.2826 8.52151 9.93402 10.7581 8.18439C12.9948 6.43476 15.6821 5.35592 18.5077 5.0733L18.5077 5.07342C17.5243 7.37038 17.2516 9.90926 17.7246 12.3627C18.1977 14.8161 19.3949 17.0715 21.1618 18.8382C22.9287 20.6049 25.1843 21.8017 27.6378 22.2745C30.0913 22.7472 32.6301 22.4741 34.9269 21.4904L34.9269 21.4905Z" stroke="white" stroke-width="2" stroke-linecap="round" stroke-linejoin="round"/>
</svg>
