<svg width="24" height="24" viewBox="0 0 24 24" fill="none" xmlns="http://www.w3.org/2000/svg">
<path d="M10 7L10.35 5.96317C10.7328 4.89077 11.4121 3.94905 12.3089 3.24748C13.2057 2.54592 14.2833 2.11332 15.4163 2C15.022 2.92104 14.9126 3.93912 15.1023 4.92289C15.292 5.90666 15.772 6.81105 16.4805 7.51945C17.189 8.22785 18.0935 8.70776 19.0772 8.89732C20.061 9.08687 21.079 8.97738 22 8.58295C21.8868 9.71596 21.4544 10.7936 20.7529 11.6905L20 12.5" stroke="#A8A8A8" stroke-width="2" stroke-linecap="round" stroke-linejoin="round"/>
<path d="M16.5051 15C16.5051 13.5166 16.0653 12.0666 15.2412 10.8332C14.417 9.59983 13.2457 8.63853 11.8753 8.07088C10.5048 7.50322 8.99682 7.35469 7.54196 7.64408C6.0871 7.93347 4.75073 8.64778 3.70184 9.69667C2.65294 10.7456 1.93863 12.0819 1.64925 13.5368C1.35986 14.9916 1.50838 16.4996 2.07604 17.8701C2.6437 19.2405 3.60499 20.4119 4.83836 21.236C6.07173 22.0601 7.52178 22.5 9.00514 22.5H17.2551C17.9997 22.4992 18.7355 22.3402 19.4139 22.0333C20.0922 21.7264 20.6975 21.2788 21.1897 20.7201C21.6818 20.1614 22.0494 19.5044 22.2682 18.7928C22.487 18.0811 22.5519 17.3311 22.4587 16.5924C22.3654 15.8537 22.1161 15.1434 21.7273 14.5084C21.3386 13.8735 20.8192 13.3285 20.2036 12.9096C19.5881 12.4907 18.8905 12.2076 18.1572 12.0789C17.4239 11.9503 16.6716 11.9791 15.9502 12.1634" stroke="black" stroke-width="2" stroke-linecap="round" stroke-linejoin="round"/>
</svg>
