<svg width="24" height="24" viewBox="0 0 24 24" fill="none" xmlns="http://www.w3.org/2000/svg">
<path d="M12.75 19.5H6.75002C6.00549 19.4993 5.26963 19.3402 4.59128 19.0334C3.91294 18.7265 3.30762 18.2788 2.8155 17.7202C2.32338 17.1615 1.95573 16.5045 1.73694 15.7928C1.51814 15.0812 1.45322 14.3311 1.54647 13.5925C1.63972 12.8538 1.88902 12.1434 2.27781 11.5085C2.66661 10.8735 3.186 10.3285 3.80153 9.90965C4.41706 9.49079 5.11464 9.20763 5.84797 9.07898C6.58129 8.95034 7.3336 8.97913 8.05495 9.16347" stroke="white" stroke-width="2" stroke-linecap="round" stroke-linejoin="round"/>
<path d="M7.5 12C7.50009 10.7216 7.82696 9.46446 8.44956 8.34793C9.07217 7.23139 9.96984 6.29252 11.0573 5.62049C12.1448 4.94845 13.3861 4.56554 14.6632 4.50813C15.9403 4.45072 17.2109 4.72071 18.3543 5.29245C19.4977 5.8642 20.476 6.71873 21.1963 7.7749C21.9165 8.83107 22.3549 10.0538 22.4697 11.3271C22.5845 12.6003 22.3719 13.8817 21.8522 15.0497C21.3325 16.2177 20.5228 17.2334 19.5001 18.0005" stroke="white" stroke-width="2" stroke-linecap="round" stroke-linejoin="round"/>
<path d="M15.75 19.4992L17.25 15.7492H14.25L15.75 11.9992" stroke="#F8CB64" stroke-width="2" stroke-linecap="round" stroke-linejoin="round"/>
</svg>
