<svg width="40" height="40" viewBox="0 0 40 40" fill="none" xmlns="http://www.w3.org/2000/svg">
<path d="M16.6667 11.6666L17.2501 9.93859C17.888 8.15127 19.0201 6.58173 20.5149 5.41245C22.0096 4.24317 23.8055 3.52219 25.6938 3.33331C25.0366 4.86837 24.8544 6.56518 25.1705 8.2048C25.4867 9.84442 26.2867 11.3517 27.4675 12.5324C28.6484 13.7131 30.1558 14.5129 31.7954 14.8288C33.4351 15.1448 35.1317 14.9623 36.6667 14.3049C36.4781 16.1932 35.7573 17.9893 34.5882 19.4842L33.3333 20.8333" stroke="#A8A8A8" stroke-width="2" stroke-linecap="round" stroke-linejoin="round"/>
<path d="M27.5085 24.9999C27.5085 22.5277 26.7754 20.1109 25.4019 18.0553C24.0284 15.9997 22.0762 14.3975 19.7921 13.4515C17.508 12.5054 14.9947 12.2578 12.5699 12.7401C10.1451 13.2224 7.91786 14.413 6.1697 16.1611C4.42154 17.9093 3.23103 20.1366 2.74872 22.5613C2.2664 24.9861 2.51394 27.4994 3.46004 29.7835C4.40614 32.0676 6.00829 34.0198 8.06391 35.3933C10.1195 36.7668 12.5363 37.4999 15.0085 37.4999H28.7585C29.9994 37.4987 31.2259 37.2336 32.3564 36.7222C33.487 36.2107 34.4959 35.4647 35.3161 34.5335C36.1363 33.6023 36.749 32.5074 37.1137 31.3213C37.4783 30.1352 37.5865 28.8851 37.4311 27.654C37.2757 26.4229 36.8602 25.2389 36.2122 24.1807C35.5642 23.1224 34.6986 22.2141 33.6727 21.516C32.6468 20.8179 31.4842 20.346 30.262 20.1316C29.0397 19.9171 27.7859 19.9651 26.5837 20.2724" stroke="black" stroke-width="2" stroke-linecap="round" stroke-linejoin="round"/>
</svg>
