<svg width="40" height="40" viewBox="0 0 40 40" fill="none" xmlns="http://www.w3.org/2000/svg">
<path d="M21.25 32.5H11.25C10.0092 32.4988 8.78272 32.2337 7.65214 31.7222C6.52156 31.2108 5.5127 30.4647 4.6925 29.5336C3.87231 28.6024 3.25955 27.5074 2.89489 26.3213C2.53024 25.1353 2.42203 23.8852 2.57745 22.6541C2.73287 21.423 3.14836 20.239 3.79635 19.1807C4.44434 18.1225 5.31001 17.2142 6.33589 16.5161C7.36177 15.818 8.5244 15.346 9.74661 15.1316C10.9688 14.9172 12.2227 14.9652 13.4249 15.2724" stroke="white" stroke-width="2" stroke-linecap="round" stroke-linejoin="round"/>
<path d="M12.5 20C12.5002 17.8693 13.0449 15.7741 14.0826 13.9132C15.1203 12.0523 16.6164 10.4875 18.4289 9.36745C20.2414 8.24739 22.3101 7.60922 24.4386 7.51353C26.5671 7.41784 28.6848 7.86782 30.5905 8.82073C32.4962 9.77364 34.1267 11.1979 35.3271 12.9581C36.5276 14.7184 37.2582 16.7564 37.4495 18.8784C37.6408 21.0005 37.2866 23.1362 36.4203 25.0828C35.5541 27.0294 34.2047 28.7223 32.5002 30.0008" stroke="white" stroke-width="2" stroke-linecap="round" stroke-linejoin="round"/>
<path d="M23.125 22.5C24.1605 22.5 25 21.6605 25 20.625C25 19.5895 24.1605 18.75 23.125 18.75C22.0895 18.75 21.25 19.5895 21.25 20.625C21.25 21.6605 22.0895 22.5 23.125 22.5Z" fill="#87CBFD"/>
<path d="M21.875 28.75C22.9105 28.75 23.75 27.9105 23.75 26.875C23.75 25.8395 22.9105 25 21.875 25C20.8395 25 20 25.8395 20 26.875C20 27.9105 20.8395 28.75 21.875 28.75Z" fill="#87CBFD"/>
<path d="M28.125 27.5C29.1605 27.5 30 26.6605 30 25.625C30 24.5895 29.1605 23.75 28.125 23.75C27.0895 23.75 26.25 24.5895 26.25 25.625C26.25 26.6605 27.0895 27.5 28.125 27.5Z" fill="#87CBFD"/>
<path d="M26.875 33.75C27.9105 33.75 28.75 32.9105 28.75 31.875C28.75 30.8395 27.9105 30 26.875 30C25.8395 30 25 30.8395 25 31.875C25 32.9105 25.8395 33.75 26.875 33.75Z" fill="#87CBFD"/>
</svg>
