<svg width="24" height="24" viewBox="0 0 24 24" fill="none" xmlns="http://www.w3.org/2000/svg">
<path d="M5.375 11C5.375 7.8934 7.8934 5.375 11 5.375C12.8082 5.375 14.471 6.1742 15.5 7.5" stroke="#F7C462" stroke-width="2" stroke-linecap="round" stroke-linejoin="round"/>
<path d="M11 2.375V1.625" stroke="#F7C462" stroke-width="2" stroke-linecap="round" stroke-linejoin="round"/>
<path d="M4.90118 4.90118L4.37085 4.37085" stroke="#F7C462" stroke-width="2" stroke-linecap="round" stroke-linejoin="round"/>
<path d="M2.375 11H1.625" stroke="#F7C462" stroke-width="2" stroke-linecap="round" stroke-linejoin="round"/>
<path d="M17.0989 4.90118L17.6292 4.37085" stroke="#F7C462" stroke-width="2" stroke-linecap="round" stroke-linejoin="round"/>
<path d="M7.50002 15C7.50002 13.5166 7.93989 12.0666 8.764 10.8332C9.58811 9.59983 10.7594 8.63853 12.1299 8.07088C13.5003 7.50322 15.0083 7.35469 16.4632 7.64408C17.9181 7.93347 19.2544 8.64778 20.3033 9.69667C21.3522 10.7456 22.0665 12.0819 22.3559 13.5368C22.6453 14.9916 22.4968 16.4996 21.9291 17.8701C21.3615 19.2405 20.4002 20.4119 19.1668 21.236C17.9334 22.0601 16.4834 22.5 15 22.5H6.75002C6.00549 22.4992 5.26963 22.3402 4.59129 22.0333C3.91294 21.7264 3.30762 21.2788 2.8155 20.7201C2.32338 20.1614 1.95573 19.5044 1.73694 18.7928C1.51814 18.0811 1.45322 17.3311 1.54647 16.5924C1.63972 15.8537 1.88902 15.1434 2.27781 14.5084C2.66661 13.8735 3.186 13.3285 3.80153 12.9096C4.41706 12.4907 5.11464 12.2076 5.84797 12.0789C6.5813 11.9503 7.3336 11.9791 8.05495 12.1634" stroke="white" stroke-width="2" stroke-linecap="round" stroke-linejoin="round"/>
</svg>
